<?xml version="1.0" encoding="utf-8"?>
<!-- Generator: Adobe Illustrator 22.1.0, SVG Export Plug-In . SVG Version: 6.00 Build 0)  -->
<svg version="1.1" id="Deposco_Logo_Set" xmlns="http://www.w3.org/2000/svg" xmlns:xlink="http://www.w3.org/1999/xlink" x="0px"
	 y="0px" viewBox="0 0 529 119.1" style="enable-background:new 0 0 529 119.1;" xml:space="preserve">
<style type="text/css">
	.st0{fill:#F48020;}
</style>
<g id="Deposco_Primary_Logo_1_">
	<g id="Pantone_716C_2_">
		<path class="st0" d="M20,89c-2.2-0.1-4.3,0.2-6.3,0.9c-1.9,0.7-3.7,1.7-5.2,3S5.8,95.8,5,97.6c-0.8,1.8-1.3,3.9-1.2,6
			c0.1,2.2,0.6,4.3,1.6,6.2c1,1.9,2.3,3.6,4,5c1.6,1.4,3.6,2.6,5.7,3.3c2.1,0.8,4.3,1.1,6.7,1.1c2.3-0.1,4.4-0.6,6.3-1.4
			s3.5-2,4.8-3.4s2.3-3,3-4.8c0.6-1.8,0.9-3.7,0.7-5.7s-0.7-3.9-1.6-5.6c-0.9-1.7-2.1-3.3-3.6-4.6c-1.5-1.3-3.2-2.4-5.1-3.2
			C24.3,89.5,22.2,89,20,89"/>
		<path class="st0" d="M13.5,50.5c-1.9-0.2-3.6-0.2-5.2,0.2s-3.1,1-4.3,1.9s-2.3,2-2.9,3.3c-0.7,1.3-1.1,2.8-1,4.5
			c0,1.7,0.5,3.3,1.3,4.8c0.8,1.5,1.9,2.9,3.2,4.1s2.9,2.2,4.7,3c1.7,0.7,3.6,1.2,5.5,1.4c1.9,0.1,3.7-0.1,5.3-0.5
			c1.6-0.5,3-1.2,4.1-2.2s2-2.1,2.6-3.4s0.8-2.8,0.7-4.3c-0.1-1.6-0.6-3.1-1.3-4.5c-0.7-1.4-1.8-2.7-3-3.9c-1.2-1.1-2.7-2.1-4.3-2.9
			C17.1,51.2,15.4,50.7,13.5,50.5"/>
		<path class="st0" d="M24.5,20.6c-1.4-0.3-2.8-0.3-4-0.2c-1.2,0.2-2.3,0.6-3.2,1.1c-0.9,0.6-1.7,1.4-2.1,2.3
			c-0.5,0.9-0.7,2-0.7,3.2c0.1,1.2,0.4,2.4,1,3.6c0.6,1.2,1.5,2.2,2.5,3.2s2.2,1.8,3.6,2.5c1.3,0.7,2.7,1.1,4.2,1.4
			c1.4,0.2,2.8,0.2,4,0s2.2-0.7,3.1-1.3c0.8-0.6,1.5-1.4,1.9-2.3c0.4-0.9,0.6-2,0.5-3.1c-0.1-1.2-0.5-2.3-1.1-3.4s-1.4-2.1-2.4-3
			c-1-0.9-2.1-1.7-3.3-2.4C27.3,21.4,25.9,20.9,24.5,20.6"/>
		<path class="st0" d="M46.8,4c-1-0.3-2-0.3-2.8-0.2c-0.9,0.1-1.6,0.3-2.2,0.7c-0.6,0.4-1.1,0.9-1.4,1.6C40,6.7,39.9,7.4,40,8.3
			s0.4,1.7,0.9,2.6c0.5,0.8,1.1,1.7,1.9,2.4c0.8,0.7,1.6,1.4,2.6,1.9c0.9,0.5,1.9,0.9,3,1.2c1,0.2,2,0.3,2.8,0.1
			c0.8-0.1,1.6-0.4,2.1-0.8c0.6-0.4,1-1,1.3-1.6s0.4-1.4,0.3-2.2c-0.1-0.8-0.4-1.7-0.9-2.5s-1.1-1.6-1.8-2.3s-1.5-1.3-2.4-1.9
			C48.8,4.7,47.8,4.3,46.8,4"/>
		<path class="st0" d="M73.9,0.2C73.1,0,72.5,0,71.9,0c-0.6,0.1-1.1,0.2-1.5,0.5s-0.7,0.7-0.9,1.2c-0.2,0.5-0.2,1.1-0.1,1.7
			c0.1,0.7,0.4,1.3,0.7,2C70.5,6,71,6.7,71.5,7.2c0.6,0.6,1.2,1.1,1.9,1.5c0.7,0.4,1.4,0.7,2.2,0.9c0.7,0.2,1.4,0.2,2,0.2
			c0.6-0.1,1.1-0.3,1.5-0.6S79.8,8.5,80,8c0-0.4,0-1-0.1-1.6s-0.4-1.3-0.7-1.9c-0.4-0.6-0.8-1.2-1.4-1.8c-0.5-0.6-1.2-1-1.8-1.5
			C75.3,0.8,74.6,0.4,73.9,0.2"/>
		<path class="st0" d="M101,6.6c-0.6-0.2-1.1-0.2-1.6-0.1S98.5,6.7,98.2,7s-0.5,0.6-0.7,1.1c-0.1,0.4-0.1,1,0,1.5
			c0.1,0.6,0.4,1.2,0.7,1.7c0.3,0.6,0.7,1.1,1.2,1.6s1,0.9,1.6,1.3c0.6,0.4,1.2,0.6,1.8,0.8c0.6,0.2,1.1,0.2,1.6,0.1
			c0.5-0.1,0.9-0.3,1.2-0.5c0.3-0.3,0.5-0.6,0.6-1.1c0.1-0.4,0.1-1,0-1.5c-0.1-0.6-0.4-1.1-0.7-1.7c-0.3-0.6-0.7-1.1-1.2-1.6
			s-1-0.9-1.5-1.3C102.2,7,101.6,6.7,101,6.6"/>
		<path class="st0" d="M125.5,21c-0.5-0.1-0.9-0.1-1.3,0s-0.7,0.2-0.9,0.5c-0.2,0.3-0.4,0.6-0.5,1s0,0.9,0.1,1.4s0.4,1,0.6,1.5
			c0.3,0.5,0.7,1,1.1,1.4s0.8,0.8,1.3,1.1c0.5,0.3,1,0.5,1.4,0.6c0.5,0.1,0.9,0.1,1.3,0s0.7-0.3,0.9-0.5c0.2-0.3,0.4-0.6,0.4-1
			c0.1-0.4,0-0.9-0.1-1.4s-0.4-1-0.6-1.5c-0.3-0.5-0.7-1-1-1.4c-0.4-0.4-0.8-0.8-1.3-1.1C126.5,21.4,126,21.2,125.5,21"/>
	</g>
	<g id="Pantone_533C">
		<path d="M104,41H60v11.4h39.8c3.6,0,4.2,2.7,4.2,3.7v22.5c0,0.8-0.4,3.9-4.2,3.9H75.6V61H60v33h44.9l0,0
			c6.4-0.1,14.2-0.9,14.7-10.5l0,0l0.1-31C119.6,41.5,110.8,41,104,41"/>
		<path d="M234.6,41h-41.8v53h14.8V75.3h27c6.4,0,14.9-0.4,14.9-11.4V52.4C249.4,41.4,241,41,234.6,41 M207.6,63.7V52.4h22.9
			c3.6,0,4,3,4,3.8v3.5c0,0.5-0.2,4-4,4H207.6z"/>
		<path d="M383.1,52.4V41h-42.8c-6.4,0-14.9,0.4-14.9,11.4v9.2c0,11,8.5,11.4,14.9,11.4h23.9c3.5,0,4.1,2.8,4.1,3.8v1.8
			c0,0.8-0.4,3.8-4.1,3.8h-38.8V94h42.8c6.4,0,14.9-0.4,14.9-11.4V72.3c0-3.2-0.9-5.7-2.7-7.5c-1.8-1.8-4.5-2.9-8.1-3.1h-28
			c-3.5,0-4-2.8-4-3.7v-1.8c0-1,0.6-3.7,4-3.7L383.1,52.4z"/>
		<path d="M146.6,52.4h37.9V41h-41.8c-6.4,0-14.8,0.4-14.8,11.4v30.1c0,10.8,8.2,11.4,14.6,11.4l0,0h42.1V82.5h-37.8
			c-3.9,0-4-3.5-4-4v-5.2H176V62h-33.2v-5.6C142.7,56,142.9,52.5,146.6,52.4"/>
		<path d="M302.4,41h-29.9c-6.4,0-14.9,0.4-14.9,11.4h40.9c3.7,0.1,3.9,3.5,3.9,4v22.1l0,0c0,0.5-0.2,4-4,4h-21.8c-3.9,0-4-3.5-4-4
			V61h-14.9v21.5l0,0c0,11,8.4,11.4,14.8,11.4h29.9c6.4,0,14.9-0.4,14.9-11.4V52.4C317.3,41.5,308.8,41,302.4,41"/>
		<path d="M410.1,52.4H448V41h-41.8c-6.4,0-14.8,0.4-14.8,11.4v30.1c0,11,8.4,11.4,14.8,11.4H448V82.5h-37.8c-3.4,0-3.9-2.7-4-3.7
			V56.1C406.2,55.1,406.8,52.5,410.1,52.4"/>
		<path d="M501,41h-30c-6.4,0-14.9,0.4-14.9,11.4H497c3.8,0.1,3.9,3.5,3.9,4v22.1l0,0c0,0.5-0.2,4-4,4h-21.8c-3.9,0-4-3.5-4-4V61
			h-14.9v21.5c0,11,8.5,11.4,14.9,11.4H501c6.4,0,14.9-0.4,14.9-11.4V52.4C515.8,41.5,507.4,41,501,41"/>
		<path d="M524,89.4v0.8h-1.4V94h-1v-3.8h-1.4v-0.8C520.2,89.4,524,89.4,524,89.4z"/>
		<path d="M527.6,89.4h1.4V94h-0.9v-3.1c0-0.1,0-0.2,0-0.4c0-0.2,0-0.3,0-0.4l-0.9,3.8h-0.9l-0.9-3.8c0,0.1,0,0.2,0,0.4
			c0,0.2,0,0.3,0,0.4V94h-0.9v-4.6h1.4l0.8,3.6L527.6,89.4z"/>
	</g>
</g>
</svg>
