<svg version="1.1" id="Layer_1" xmlns:x="ns_extend;" xmlns:i="ns_ai;" xmlns:graph="ns_graphs;" xmlns="http://www.w3.org/2000/svg" xmlns:xlink="http://www.w3.org/1999/xlink" x="0px" y="0px" viewBox="0 0 412.1 66" style="enable-background:new 0 0 412.1 66;" xml:space="preserve">
 <style type="text/css">
  .st0{fill:#001B3A;}
 </style>
 <metadata>
  <sfw xmlns="ns_sfw;">
   <slices>
   </slices>
   <sliceSourceBounds bottomLeftOrigin="true" height="66" width="412.1" x="-201.7" y="23.9">
   </sliceSourceBounds>
  </sfw>
 </metadata>
 <g>
  <path class="st0" d="M56.7,62.9H52V29h4.8v3.5c1.9-2.8,5.5-3.9,8.8-3.9c9.2-0.1,13.6,6.4,13.6,13.6s-4.7,13.5-13.5,13.5
		c-3.3,0-6.5-0.8-8.8-3.9V62.9z M65.7,51.4c5.7-0.1,8.7-4.7,8.7-9.3c0.1-4.8-3-9.6-9-9.4c-4.3,0.1-8.6,3.2-8.6,9.3
		C56.7,48.4,61.2,51.5,65.7,51.4L65.7,51.4z">
  </path>
  <path class="st0" d="M112.8,29v26.2H108v-3.5c-1.9,2.9-6.1,3.9-9.4,4c-9.2,0-14.1-6.4-14.1-13.7c0-7.1,5.1-13.4,14-13.4
		c3.3,0,7.2,0.8,9.5,3.9L108,29H112.8z M98.4,32.7c-5.7,0.1-9.2,4.1-9.2,9.3c0,5.1,3.5,9.6,9.5,9.4c4.3-0.1,9.2-3.2,9.2-9.4
		C108,35.8,102.9,32.7,98.4,32.7z">
  </path>
  <path class="st0" d="M124.3,29v3.2c2.5-3.5,6.4-4.4,10.5-3.4V33c-1.2-0.4-2.5-0.5-3.8-0.2c-1.3,0.2-2.5,0.7-3.5,1.5
		c-1,0.8-1.9,1.8-2.4,3c-0.6,1.2-0.8,2.4-0.8,3.7v14.2h-4.7V29H124.3z">
  </path>
  <path class="st0" d="M164.5,45.2c-1.3,6.9-7.2,10.3-13.1,10.4c-6.9,0.1-13.7-4.4-13.7-13.5c0-9.1,6.8-13.5,13.6-13.5
		c6,0,11.9,3.4,13.2,10.4h-4.9c-0.5-1.8-1.6-3.4-3.1-4.5c-1.5-1.1-3.3-1.7-5.2-1.7c-4.4,0-8.9,3-8.9,9.3c0,6.3,4.5,9.4,9,9.4
		c1.9,0,3.7-0.5,5.2-1.7c1.5-1.1,2.6-2.7,3-4.5H164.5z">
  </path>
  <path class="st0" d="M196.2,43.2H174c0,5.1,4.9,8.2,8.8,8.2c3.3,0,6.3-1.4,7.8-4.4h4.9c-2,5.7-7.4,8.6-12.8,8.6
		c-6.7,0-13.5-4.6-13.5-13.6s6.7-13.5,13.6-13.5c6.5,0,12.9,4.1,13.4,12.4C196.4,41.7,196.4,42.5,196.2,43.2z M191.3,39.4
		c-0.9-4.7-4.7-6.5-8.4-6.5c-3.8,0-7.7,1.9-8.7,6.5H191.3z">
  </path>
  <path class="st0" d="M207.4,55.2h-4.8V21.3h4.8V55.2z">
  </path>
  <path class="st0" d="M219.4,62.9h-4.8V29h4.8v3.5c1.9-2.8,5.5-3.9,8.8-3.9c9.2-0.1,13.6,6.4,13.6,13.6s-4.7,13.5-13.5,13.5
		c-3.3,0-6.5-0.8-8.8-3.9V62.9z M228.3,51.4c5.7-0.1,8.7-4.7,8.7-9.3c0-4.8-3-9.6-9-9.4c-4.3,0.1-8.6,3.2-8.6,9.3
		C219.4,48.4,223.8,51.5,228.3,51.4L228.3,51.4z">
  </path>
  <path class="st0" d="M273.8,43.2h-22.2c0,5.1,4.9,8.2,8.8,8.2c3.3,0,6.3-1.4,7.8-4.4h4.9c-2,5.7-7.4,8.6-12.8,8.6
		c-6.7,0-13.5-4.6-13.5-13.6s6.7-13.5,13.6-13.5c6.5,0,12.9,4.1,13.4,12.4C274,41.7,273.9,42.5,273.8,43.2z M268.9,39.4
		c-0.9-4.7-4.7-6.5-8.4-6.5c-3.8,0-7.7,1.9-8.7,6.5H268.9z">
  </path>
  <path class="st0" d="M284.8,29v3.2c2.5-3.5,6.4-4.4,10.5-3.4V33c-1.2-0.4-2.5-0.5-3.8-0.2c-1.3,0.2-2.5,0.7-3.5,1.5
		c-1,0.8-1.9,1.8-2.4,3c-0.6,1.2-0.8,2.4-0.8,3.7v14.2h-4.7V29H284.8z">
  </path>
  <path class="st0" d="M308.4,55.2h-4.8V32.9h-4v-4.1h4c0-6.3,3.7-8.5,10.7-7.9v4c-3.4-0.3-5.9,0-5.9,4h5.3v4.1h-5.3L308.4,55.2z">
  </path>
  <path class="st0" d="M330.5,55.7c-7,0-14.1-4.6-14.1-13.6c0-9,7.1-13.6,14.2-13.6c7.1,0,14.1,4.6,14.1,13.6
		C344.8,51.1,337.7,55.7,330.5,55.7z M330.5,51.4c4.8,0,9.5-3.1,9.5-9.3c0-6.2-4.7-9.4-9.4-9.4c-4.7,0-9.5,3.1-9.5,9.4
		C321.2,48.4,325.9,51.4,330.5,51.4z">
  </path>
  <path class="st0" d="M356,29v3.2c2.5-3.5,6.4-4.4,10.5-3.4V33c-1.2-0.4-2.5-0.5-3.8-0.2c-1.3,0.2-2.5,0.8-3.5,1.5
		c-1,0.8-1.9,1.8-2.4,3c-0.6,1.2-0.8,2.4-0.8,3.7v14.2h-4.7V29H356z">
  </path>
  <path class="st0" d="M377,28.6v3.7c0.8-1.2,1.9-2.2,3.2-2.8c1.3-0.6,2.7-0.9,4.2-0.9c3.7,0,7,0.9,8.9,4.6c1.6-2.9,4.6-4.5,8.4-4.6
		c7.2,0,10.4,5.1,10.4,11.7v14.9h-4.8V40.3c0-3.7-0.9-7.4-5.5-7.4c-4.6,0-7,3.2-7,7.5v14.8h-4.8V40.5c0-3.7-1.4-7.5-5.8-7.5
		c-4.2,0-7.3,2.9-7.3,8v14.2h-4.8V28.5L377,28.6z">
  </path>
  <path class="st0" d="M14.6,3.4l23,22.9l-23,22.9V3.4z M13.2,0v52.7l26.4-26.4L13.2,0z">
  </path>
  <path class="st0" d="M0,13.3l26.4,26.4L0,66V13.3z">
  </path>
 </g>
</svg>